<?xml version="1.0" encoding="utf-8"?>
<!-- Generator: Adobe Illustrator 24.1.3, SVG Export Plug-In . SVG Version: 6.00 Build 0)  -->
<svg version="1.1" id="geel-snoep" xmlns="http://www.w3.org/2000/svg" xmlns:xlink="http://www.w3.org/1999/xlink" x="0px" y="0px"
	 width="73px" height="99.3px" viewBox="0 0 73 99.3" style="enable-background:new 0 0 73 99.3;" xml:space="preserve">
<style type="text/css">
	.st0{fill:#A98F47;}
	.st1{fill:#DDD2C7;}
	.st2{fill:#B0B9C2;}
	.st3{fill:#BEBEB2;}
	.st4{fill:#CBC266;}
	.st5{fill:#BEA051;}
	.st6{fill:#79652F;}
	.st7{fill:#B3AB5B;}
	.st8{fill:#BEC5C9;}
	.st9{fill:#E6D7C5;}
	.st10{fill:#DEC8BB;}
	.st11{fill:#ABB6C2;}
	.st12{fill:#C0C1C7;}
	.st13{fill:none;stroke:#000000;stroke-linecap:round;stroke-linejoin:round;stroke-miterlimit:10;}
	.st14{fill:#FFFFFF;}
	.st15{fill:#C657A0;}
</style>
<polyline class="st0" points="0.4,82 0.4,82.1 30.2,99.3 73,15.3 66.3,6.4 43.4,0 0,81.3 0.4,82 "/>
<polygon class="st1" points="5.3,92 30.1,99.2 25,88.8 0.4,82 "/>
<path class="st2" d="M8.8,84.3c-0.3,0.8-0.7,1.9-1.1,3C7,89,6.3,90.8,5.8,92.2L5.3,92L0.4,82l8.2,2.2L8.8,84.3z"/>
<path class="st3" d="M26.8,92.4L25,88.8L8.8,84.3c-0.3,0.9-0.7,1.9-1.1,3L26.8,92.4z"/>
<path id="_x3C_pad_x3E_" class="st4" d="M23.9,86.2L2.8,80.1l0,0L2.7,80h0.1L41.6,7.5l20.1,5.4L23.9,86.2z"/>
<path class="st5" d="M22.1,52c0,0,0.8-1,0.8-0.6s0,1.1,0,1.1s-0.1,0.1,0.5,0s1.2,0.1,0.7,0.5s-0.4,0.5-0.4,0.5s1.4,0.6,0.6,0.6
	s-0.9,0.1-0.9,0.1s0.1,1.3-0.5,1.5L22.1,55c0,0-0.3,0-0.5,0.3s-0.7,0.9-0.8,0v-1c0,0-1-0.1-1-0.4s0.7-0.4,0.7-0.4s0.3,0,0.1-0.3
	c-0.2-0.3-0.7-0.7-0.7-0.7s-0.2-0.3,0.3-0.1c0.4,0.2,0.8-0.1,0.8-0.1l0.1-0.7c0,0,0.2-0.4,0.5,0.2S22.1,52,22.1,52z"/>
<path class="st5" d="M35,56c0,0,0.8-1,0.8-0.6s0,1.1,0,1.1s-0.1,0.1,0.5,0s1.2,0.1,0.7,0.5s-0.4,0.5-0.4,0.5s1.4,0.6,0.6,0.6
	c-0.8,0-0.9,0.1-0.9,0.1s0.1,1.3-0.5,1.5L35,59c0,0-0.3,0-0.5,0.3s-0.7,0.9-0.8,0v-1c0,0-1-0.1-1-0.4c0-0.2,0.7-0.4,0.7-0.4
	s0.3,0,0.1-0.3s-0.7-0.7-0.7-0.7s-0.2-0.3,0.3-0.1c0.4,0.2,0.8-0.1,0.8-0.1l0.1-0.7c0,0,0.2-0.4,0.5,0.2C34.8,56.3,35,56,35,56z"/>
<path class="st5" d="M8,76.1c0,0,0.8-1,0.8-0.6s0,1.1,0,1.1s-0.1,0.1,0.5,0s1.2,0.1,0.7,0.5s-0.4,0.5-0.4,0.5s1.4,0.6,0.6,0.6
	s-0.9,0.1-0.9,0.1s0.1,1.3-0.5,1.5L8,79.1c0,0-0.3,0-0.5,0.3s-0.7,0.9-0.8,0v-1c0,0-1-0.1-1-0.4c0-0.2,0.7-0.4,0.7-0.4
	s0.3,0,0.1-0.3c-0.2-0.3-0.7-0.7-0.7-0.7S5.6,76.3,6,76.4c0.4,0.2,0.8-0.1,0.8-0.1l0.1-0.7c0,0,0.2-0.4,0.5,0.2
	C7.7,76.4,8,76.1,8,76.1z"/>
<path class="st5" d="M16.7,76.1c0,0,0.8-1,0.8-0.6s0,1.1,0,1.1s-0.1,0.1,0.5,0s1.2,0.1,0.7,0.5s-0.4,0.5-0.4,0.5s1.4,0.6,0.6,0.6
	S18,78.3,18,78.3s0.1,1.3-0.5,1.5L16.7,79c0,0-0.3,0-0.5,0.3s-0.7,0.9-0.8,0v-1c0,0-1-0.1-1-0.4s0.7-0.4,0.7-0.4s0.3,0,0.1-0.3
	s-0.7-0.7-0.7-0.7s-0.2-0.3,0.3-0.1c0.4,0.2,0.8-0.1,0.8-0.1l0.1-0.7c0,0,0.2-0.4,0.5,0.2S16.7,76.1,16.7,76.1z"/>
<path class="st5" d="M22.8,80.3c0,0,0.8-1,0.8-0.6s0,1.1,0,1.1s-0.1,0.1,0.5,0s1.2,0.1,0.7,0.5s-0.4,0.5-0.4,0.5s1.4,0.6,0.6,0.6
	s-0.9,0.1-0.9,0.1s0.1,1.3-0.5,1.5l-0.8-0.8c0,0-0.3,0-0.5,0.3s-0.7,0.9-0.8,0v-1c0,0-1-0.1-1-0.4c0-0.2,0.7-0.4,0.7-0.4
	s0.3,0,0.1-0.3c-0.2-0.3-0.7-0.7-0.7-0.7s-0.2-0.3,0.3-0.1c0.4,0.2,0.8-0.1,0.8-0.1l0.1-0.7c0,0,0.2-0.4,0.5,0.2
	S22.8,80.3,22.8,80.3z"/>
<path class="st5" d="M38.7,34.1c0,0,0.8-1,0.8-0.6s0,1.1,0,1.1s-0.1,0.1,0.5,0s1.2,0.1,0.7,0.5s-0.4,0.5-0.4,0.5s1.4,0.6,0.6,0.6
	c-0.8,0-0.9,0.1-0.9,0.1s0.1,1.3-0.5,1.5L38.7,37c0,0-0.3,0-0.5,0.3s-0.7,0.9-0.8,0v-1c0,0-1-0.1-1-0.4c0-0.2,0.7-0.4,0.7-0.4
	s0.3,0,0.1-0.3s-0.7-0.7-0.7-0.7s-0.2-0.3,0.3-0.1c0.4,0.2,0.8-0.1,0.8-0.1l0.1-0.7c0,0,0.2-0.4,0.5,0.2
	C38.5,34.5,38.7,34.1,38.7,34.1z"/>
<path class="st5" d="M44.2,9.8c0,0,0.8-1,0.8-0.6s0,1.1,0,1.1s-0.1,0.1,0.5,0s1.2,0.1,0.7,0.5s-0.4,0.5-0.4,0.5s1.4,0.6,0.6,0.6
	c-0.8,0-0.9,0.1-0.9,0.1s0.1,1.3-0.5,1.5l-0.8-0.8c0,0-0.3,0-0.5,0.3s-0.7,0.9-0.8,0v-1c0,0-1-0.1-1-0.4c0-0.2,0.7-0.4,0.7-0.4
	s0.3,0,0.1-0.3S42,10.2,42,10.2s-0.2-0.3,0.3-0.1s0.8-0.1,0.8-0.1l0.1-0.7c0,0,0.2-0.4,0.5,0.2C43.9,10.1,44.2,9.8,44.2,9.8z"/>
<path class="st5" d="M49.4,13.7c0,0,0.8-1,0.8-0.6s0,1.1,0,1.1s-0.1,0.1,0.5,0s1.2,0.1,0.7,0.5S51,15.2,51,15.2s1.4,0.6,0.6,0.6
	c-0.8,0-0.9,0.1-0.9,0.1s0.1,1.3-0.5,1.5l-0.8-0.8c0,0-0.3,0-0.5,0.3s-0.7,0.9-0.8,0v-1c0,0-1-0.1-1-0.4c0-0.2,0.7-0.4,0.7-0.4
	s0.3,0,0.1-0.3s-0.7-0.7-0.7-0.7S47,13.8,47.5,14c0.4,0.2,0.8-0.1,0.8-0.1l0.1-0.7c0,0,0.2-0.4,0.5,0.2
	C49.1,14.1,49.4,13.7,49.4,13.7z"/>
<path class="st5" d="M56.8,13.7c0,0,0.8-1,0.8-0.6s0,1.1,0,1.1s-0.1,0.1,0.5,0s1.2,0.1,0.7,0.5s-0.4,0.5-0.4,0.5s1.4,0.6,0.6,0.6
	c-0.8,0-0.9,0.1-0.9,0.1s0.1,1.3-0.5,1.5l-0.8-0.8c0,0-0.3,0-0.5,0.3s-0.7,0.9-0.8,0v-1c0,0-1-0.1-1-0.4c0-0.2,0.7-0.4,0.7-0.4
	s0.3,0,0.1-0.3s-0.7-0.7-0.7-0.7s-0.2-0.3,0.3-0.1c0.4,0.2,0.8-0.1,0.8-0.1l0.1-0.7c0,0,0.2-0.4,0.5,0.2
	C56.6,14.1,56.8,13.7,56.8,13.7z"/>
<path class="st5" d="M32.1,87.8l0.4-1.6c0,0,0.1-0.6-0.4,0c-0.4,0.6-0.7,1.1-0.7,1.1l-1-0.7c0,0-0.2-0.5-0.1,0.5
	c0.1,0.9,0.1,1.6,0.1,1.6L29.7,89c0,0-0.8,0.2-0.8,0.5c0,0.2-0.2,0.3,0.4,0.3s0.8,0,0.8,0L30,91.4c0,0,0.5,0.1,0.5-0.4
	s0.1-0.9,0.1-0.9l0.7,0.7c0,0,0.3,0.2,0.3-0.5s0.1-0.9,0.1-0.9l1.1-0.6c0,0,0.5-0.2-0.5-0.5C31.4,88,32.1,87.8,32.1,87.8z"/>
<polygon class="st6" points="31.4,97 71.4,18.5 64.4,12.1 25,88.6 30.4,99.1 "/>
<polygon class="st7" points="27,87.5 65.1,14.9 69.7,19 31,95.8 "/>
<polygon class="st8" points="30.6,84.1 65.2,17.6 68.4,19 34,86.9 33,84.5 "/>
<polygon class="st9" points="66.3,6.4 66.3,6.4 43.4,0 41,4.6 64.4,12.1 "/>
<polygon class="st10" points="44,4.2 45.2,2 63.6,6.9 62.5,10 61.3,9.6 62.2,7.4 45.7,2.8 44.8,4.5 "/>
<polygon class="st11" points="66.3,6.4 66.3,6.4 64.4,12.1 64.4,12.1 71.4,18.5 73,15.3 "/>
<path class="st12" d="M66.7,11.6l0.9-0.7l3.1,3.9V16c0,0,0.5,0.4,0.8,0c0.2-0.4,0.6-0.9-0.6-2.3s-2.8-4.5-3.4-4.3s-1.2,2-1.2,2
	l0.3,0.3L66.7,11.6z"/>
<path class="st13" d="M37.8,74.4c-0.2-0.1-0.4,0.1-0.5,0.3C37.1,75,37,75.4,37,75.8s0.2,0.8,0.6,1c0.2,0.2,0.5,0.3,0.7,0.2
	c0.1,0,0.2-0.1,0.4-0.2c0.2-0.2,0.4-0.4,0.5-0.6"/>
<path class="st13" d="M55.2,38.8c-0.1,0.1-0.2,0.2-0.3,0.4c-0.2,0.5-0.3,1.1-0.2,1.6c0,0.1,0.1,0.3,0.2,0.4c0.1,0.1,0.3,0.1,0.5,0.1
	c0.3,0,0.6,0,0.8-0.1c0.3-0.2,0.4-0.6,0.4-1c0-0.3,0-0.6-0.2-0.9C56.3,38.9,55.7,38.5,55.2,38.8z"/>
<path class="st13" d="M59.6,34.4c-0.4-0.5-0.7-1-0.9-1.6c0-0.1,0-0.2,0-0.2s0.1-0.1,0.2-0.1c0.2,0,0.4,0.1,0.6,0.2
	c0.3,0.1,0.6,0.2,0.9,0.2c0.1-0.7-0.3-1.3-0.7-1.9"/>
<g id="XMLID_3_">
	<g>
		<polygon class="st14" points="28.7,71.1 27.1,75.2 25.7,74.5 27.2,70.5 		"/>
		<polygon class="st14" points="26.8,70.2 25.2,74.3 23.8,73.7 25.3,69.6 		"/>
		<polygon class="st14" points="24.8,69.4 23.3,73.4 21.9,72.8 23.4,68.7 		"/>
		<polygon class="st14" points="22.6,67.9 23.3,66.1 23.7,66.2 26.7,67.6 26,69.4 		"/>
		<polygon class="st14" points="23,68.5 21.5,72.6 20,71.9 21.6,67.9 		"/>
		<polygon class="st14" points="21.1,67.7 19.6,71.7 18.2,71.1 19.7,67 		"/>
		<path class="st14" d="M23.2,65c-0.2-0.4-0.5-0.7-0.8-1c-0.5-0.2-0.9-0.3-1.4-0.2c-0.4,0.1-0.7,0.3-0.9,0.6h-0.3l-2.4-2.7l1.4-1.2
			l1.9,2.1l-0.2-2.7l1.9,0.1l0.2,2.5l1.7-1.6l1.4,1.4l-1.8,1.8h2.6l0.2,2.1h-3.2l-0.4-0.1V66C23.4,65.7,23.4,65.4,23.2,65z"/>
		<polygon class="st14" points="20.1,64.5 19.4,66.4 16,64.8 16.7,63 19.8,64.4 		"/>
		<polygon class="st14" points="19.2,66.8 18.5,68.6 15.2,67.1 15.9,65.3 		"/>
		<polygon class="st14" points="18.4,69.1 17.7,70.9 14.3,69.3 15,67.5 		"/>
		<polygon class="st14" points="17.5,71.3 16.8,73.1 13.5,71.6 14.2,69.8 		"/>
		<path d="M25.2,74.3l1.5-4.1l-1.4-0.7l-1.5,4.1L25.2,74.3z M28.7,71.1l-1.4-0.7l-1.5,4.1l1.5,0.7L28.7,71.1z M21.1,67.7L19.7,67
			l-1.5,4.1l1.4,0.7L21.1,67.7z M23.4,68.7l-1.5,4.1l1.4,0.7l1.5-4.1L23.4,68.7z M21.5,72.6l1.5-4.1l-1.4-0.7L20,71.9L21.5,72.6z
			 M22.6,67.9l3.4,1.5l0.7-1.8l-3-1.4h3.2l-0.2-2.1h-2.6l1.8-1.8l-1.4-1.4l-1.7,1.6L22.5,60l-1.9-0.1l0.2,2.7l-1.9-2.1l-1.4,1.2
			l2.4,2.7L16.7,63L16,64.8l3.3,1.5l0.7-1.9c0.2-0.3,0.5-0.5,0.9-0.6s0.9-0.1,1.4,0.2c0.4,0.2,0.6,0.6,0.8,1c0.2,0.4,0.2,0.7,0.1,1
			v0.1L22.6,67.9z M11.7,68l3.5-9.3l0.8,0.4L15.7,58l1.9-1.9l1.5,1.4L19,55.6l2.8,0.2l0.5,1.5l0.9-0.9l2,2.1l0.5,1.4H26l1.1,3.7
			l0.3,2.9h-0.9l1.4,0.7l1.2,3.7l-1.8,4.9L18,71.5l-0.8,2.2l-4.3-1.9L11.7,68z M17.5,71.3l-3.3-1.5l-0.7,1.8l3.3,1.5L17.5,71.3z
			 M18.4,69.1L15,67.5l-0.7,1.8l3.3,1.5L18.4,69.1z M15.2,67.1l3.3,1.5l0.7-1.8l0,0l-3.3-1.5L15.2,67.1z"/>
	</g>
</g>
<g id="XMLID_1_">
	<g>
		<rect x="50" y="23.6" transform="matrix(0.4088 -0.9126 0.9126 0.4088 7.0232 61.6367)" class="st14" width="2.1" height="3.6"/>
		
			<rect x="48.9" y="25.9" transform="matrix(0.4088 -0.9126 0.9126 0.4088 4.2756 61.9804)" class="st14" width="2.1" height="3.6"/>
		<polygon class="st14" points="51,29.9 50.2,31.8 46.9,30.4 47.7,28.4 		"/>
		<polygon class="st14" points="49.9,32.3 49.1,34.2 45.8,32.8 46.6,30.8 		"/>
		<polygon class="st14" points="48.9,34.7 48,36.6 44.7,35.1 45.6,33.2 		"/>
		<polygon class="st14" points="47.6,22.7 46.7,24.6 43.5,23.1 44.3,21.2 		"/>
		
			<rect x="43.9" y="23.7" transform="matrix(0.4088 -0.9126 0.9126 0.4088 3.3284 56.0215)" class="st14" width="2.1" height="3.5"/>
		<polygon class="st14" points="46.4,27.8 45.5,29.7 42.3,28.3 43.1,26.4 		"/>
		
			<rect x="42.7" y="28.9" transform="matrix(0.4084 -0.9128 0.9128 0.4084 -2.1216 58.0248)" class="st14" width="2.1" height="3.5"/>
		<polygon class="st14" points="45.1,33 44.3,34.9 41.1,33.5 41.9,31.6 		"/>
		<polygon class="st14" points="43.9,21 43,22.9 39.8,21.5 40.6,19.6 		"/>
		<polygon class="st14" points="42.8,23.4 42,25.3 38.7,23.9 39.6,21.9 		"/>
		<polygon class="st14" points="41.8,25.8 40.9,27.7 37.6,26.2 38.5,24.3 		"/>
		<polygon class="st14" points="40.7,28.2 39.8,30.1 36.6,28.6 37.4,26.7 		"/>
		<polygon class="st14" points="39.6,30.5 38.8,32.5 35.5,31 36.4,29.1 		"/>
		<path d="M45.1,33l-3.2-1.4L41,33.5l3.2,1.4L45.1,33z M45.8,30.5L42.5,29l-0.8,1.9l3.2,1.4L45.8,30.5z M46.4,27.8l-3.2-1.4
			l-0.9,1.9l3.2,1.4L46.4,27.8z M46.9,25.2l-3.2-1.4l-0.9,1.9l3.2,1.4L46.9,25.2z M46.7,24.6l0.9-1.9l-3.2-1.4l-0.8,1.9L46.7,24.6z
			 M51,29.9l-3.3-1.5l-0.9,1.9l3.3,1.5L51,29.9z M48,36.6l0.9-1.9l-3.3-1.5l-0.8,1.9L48,36.6z M52.1,27.5L48.8,26l-0.9,2l3.3,1.5
			L52.1,27.5z M49.8,23.7L49,25.6l3.3,1.5l0.9-1.9L49.8,23.7z M49.1,34.2l0.8-1.9l-3.3-1.5l-0.8,1.9L49.1,34.2z M41.8,25.8l-3.2-1.5
			l-0.9,1.9l3.3,1.5L41.8,25.8z M38.8,32.5l0.8-1.9l-3.2-1.5L35.5,31L38.8,32.5z M42.8,23.4l-3.2-1.5l-0.9,1.9l3.2,1.5L42.8,23.4z
			 M40.6,19.6l-0.9,1.9l3.2,1.4l0.9-1.9L40.6,19.6z M36.6,28.6l3.3,1.4l0.8-1.9l-3.2-1.4L36.6,28.6z M40.5,33.8L40,31.1l-0.9,2
			l-4.2-1.8L34,27.4l5.5-12.3l7.7,3.4l0.6,2.7l0.9-2l4.1,1.8l0.9,4l-5.4,12.2L40.5,33.8z"/>
	</g>
</g>
<g id="XMLID_2_">
	<g>
		<polygon class="st14" points="42.2,45.3 41.4,47 37.9,45.6 38.8,43.8 		"/>
		<polygon class="st14" points="41.2,47.4 40.4,49.2 36.9,47.7 37.8,46 		"/>
		<polygon class="st14" points="40.2,49.6 39.4,51.3 35.9,49.9 36.8,48.1 		"/>
		<polygon class="st14" points="39.2,51.8 37.4,55.7 35.9,55.1 37.7,51.2 		"/>
		<polygon class="st14" points="37.2,51 35.4,54.9 33.9,54.3 35.7,50.4 		"/>
		<polygon class="st14" points="36.3,45.4 35.5,47.1 32.1,45.7 32.9,44 		"/>
		<polygon class="st14" points="35.3,47.6 34.5,49.3 31.1,47.9 31.9,46.1 		"/>
		<polygon class="st14" points="35.3,50.2 33.4,54.1 32,53.4 33.8,49.5 		"/>
		<polygon class="st14" points="33.4,49.4 31.6,53.3 30.1,52.6 31.9,48.7 		"/>
		<polygon class="st14" points="32.5,41.2 31.7,42.9 28.3,41.5 29.1,39.8 		"/>
		<polygon class="st14" points="31.5,43.4 30.7,45.1 27.3,43.7 28.1,41.9 		"/>
		<polygon class="st14" points="31.4,48.5 29.6,52.4 28.2,51.8 30,47.9 		"/>
		<polygon class="st14" points="30.5,45.5 29.7,47.3 26.3,45.8 27.1,44.1 		"/>
		<polygon class="st14" points="29.5,47.7 27.7,51.6 26.2,51 28,47.1 		"/>
		<polygon class="st14" points="27.5,46.9 25.7,50.8 24.2,50.2 26.1,46.3 		"/>
		<path d="M35.3,50.2l-1.5-0.6L32,53.4l1.4,0.6L35.3,50.2z M35.5,47.1l0.8-1.8L32.9,44l-0.8,1.8L35.5,47.1z M37.2,51l-1.5-0.6
			l-1.8,3.9l1.5,0.6L37.2,51z M39.2,51.8l-1.5-0.6l-1.8,3.9l1.5,0.6L39.2,51.8z M41.2,47.4L37.8,46L37,47.8l3.5,1.5L41.2,47.4z
			 M42.2,45.3l-3.5-1.5l-0.8,1.8l3.5,1.5L42.2,45.3z M39.4,51.3l0.8-1.8L36.7,48l-0.8,1.8L39.4,51.3z M27.5,46.9L26,46.3l-1.8,3.9
			l1.5,0.6L27.5,46.9z M29.5,47.7L28,47.1L26.2,51l1.5,0.6L29.5,47.7z M32.5,41.2l-3.4-1.4l-0.8,1.8l3.4,1.4L32.5,41.2z M29.7,47.3
			l0.8-1.8l-3.4-1.4l-0.8,1.8L29.7,47.3z M30.1,52.6l1.5,0.6l1.8-3.9l-1.5-0.6L30.1,52.6z M30.7,45.1l0.8-1.8l0,0l-3.4-1.4l-0.8,1.8
			L30.7,45.1z M31.4,48.5L30,47.9l-1.8,3.9l1.5,0.6L31.4,48.5z M31.9,46.1l-0.8,1.8l3.4,1.4l0.8-1.8L31.9,46.1z M37.6,56.3l-14-5.9
			l-1-3.8l5.1-11.1l4.2,1.8l0.9,2.9l3,1.2l0.3,1l1.3-2.9l4.2,1.8l1.1,3.8L37.6,56.3z"/>
	</g>
</g>
<path class="st15" d="M55.4,53.1c0-2.1,0.7-4.2,2-5.8c-0.1-0.2-0.1-0.5,0.2-0.7c0.5-0.5,1-1.1,1.5-1.6c-0.4-0.4-0.8-0.7-1.3-0.7
	c-2.5,0-8.4,0.7-10.4,3.5S35.9,64.2,40,74.4c0.7,1.7,1.2,3.2,1.5,4.5c0.7-1.3,1.4-2.6,2.1-3.9c1.6-2.9,3.6-5.6,5.5-8.3
	c1.8-2.5,3.5-4.9,4.7-7.7c0.7-1.7,1.3-3.5,1.9-5.3C55.5,53.5,55.4,53.3,55.4,53.1z"/>
</svg>
