<?xml version="1.0" encoding="utf-8"?>
<!-- Generator: Adobe Illustrator 24.1.3, SVG Export Plug-In . SVG Version: 6.00 Build 0)  -->
<svg version="1.1" id="PEZ_candy_form" xmlns="http://www.w3.org/2000/svg" xmlns:xlink="http://www.w3.org/1999/xlink" x="0px"
	 y="0px" width="40px" height="23px" viewBox="0 0 40 23" style="enable-background:new 0 0 40 23;" xml:space="preserve">
<style type="text/css">
	.st0{fill:#E6D7C5;}
	.st1{fill:#DEC8BB;}
	.st2{fill:#FFFFFF;}
</style>
<path class="st0" d="M30.2,23H9.8C4.4,23,0,18.6,0,13.2l0-3.3C0,4.4,4.4,0,9.8,0l20.4,0C35.6,0,40,4.4,40,9.8v3.3
	C40,18.6,35.6,23,30.2,23z"/>
<path class="st1" d="M30.4,19.6H9.3c-2.5,0-4.5-2-4.5-4.5V8.2c0-2.5,2-4.5,4.5-4.5h21.1c2.5,0,4.5,2,4.5,4.5v6.9
	C34.9,17.6,32.9,19.6,30.4,19.6z"/>
<path class="st2" d="M10.5,7.9c0.5-0.1,1.2-0.1,2.1-0.1c1.1,0,1.9,0.2,2.4,0.6c0.5,0.4,0.8,0.9,0.8,1.6c0,0.7-0.2,1.2-0.7,1.6
	c-0.6,0.6-1.6,0.8-2.6,0.8c-0.3,0-0.6,0-0.9-0.1v3h-1.1V7.9z M11.6,11.6c0.2,0.1,0.6,0.1,0.9,0.1c1.3,0,2.2-0.6,2.2-1.6
	c0-1-0.8-1.5-2-1.5c-0.5,0-0.9,0-1.1,0.1V11.6z"/>
<path class="st2" d="M21.8,11.9h-3.4v2.7h3.7v0.8h-4.9V7.8H22v0.8h-3.6v2.4h3.4V11.9z"/>
<path class="st2" d="M23.1,14.9l4.8-6.2v0h-4.4V7.8h5.8v0.6l-4.8,6.1v0h4.8v0.8h-6.3V14.9z"/>
</svg>
