<?xml version="1.0" encoding="utf-8"?>
<!-- Generator: Adobe Illustrator 24.1.3, SVG Export Plug-In . SVG Version: 6.00 Build 0)  -->
<svg version="1.1" id="PEZ_candy_form" xmlns="http://www.w3.org/2000/svg" xmlns:xlink="http://www.w3.org/1999/xlink" x="0px"
	 y="0px" width="44.7px" height="28.5px" viewBox="0 0 44.7 28.5" style="enable-background:new 0 0 44.7 28.5;"
	 xml:space="preserve">
<style type="text/css">
	.st0{fill:#E6D7C5;}
	.st1{fill:#DEC8BB;}
	.st2{fill:#FFFFFF;}
</style>
<path class="st0" d="M32.4,26.1H12c-5.4,0-9.8-4.4-9.8-9.8V13c0-5.5,4.4-9.9,9.8-9.9h20.4c5.4,0,9.8,4.4,9.8,9.8v3.3
	C42.2,21.7,37.8,26.1,32.4,26.1z"/>
<path class="st1" d="M32.6,22.7H11.5c-2.5,0-4.5-2-4.5-4.5v-6.9c0-2.5,2-4.5,4.5-4.5h21.1c2.5,0,4.5,2,4.5,4.5v6.9
	C37.1,20.7,35.1,22.7,32.6,22.7z"/>
<path class="st2" d="M12.7,11c0.5-0.1,1.2-0.1,2.1-0.1c1.1,0,1.9,0.2,2.4,0.6c0.5,0.4,0.8,0.9,0.8,1.6c0,0.7-0.2,1.2-0.7,1.6
	c-0.6,0.6-1.6,0.8-2.6,0.8c-0.3,0-0.6,0-0.9-0.1v3h-1.1V11z M13.8,14.7c0.2,0.1,0.6,0.1,0.9,0.1c1.3,0,2.2-0.6,2.2-1.6
	s-0.8-1.5-2-1.5c-0.5,0-0.9,0-1.1,0.1C13.8,11.8,13.8,14.7,13.8,14.7z"/>
<path class="st2" d="M24,15h-3.4v2.7h3.7v0.8h-4.9v-7.6h4.8v0.8h-3.6v2.4H24V15z"/>
<path class="st2" d="M25.3,18l4.8-6.2l0,0h-4.4v-0.9h5.8v0.6l-4.8,6.1l0,0h4.8v0.8h-6.3L25.3,18L25.3,18z"/>
</svg>
