<?xml version="1.0" encoding="utf-8"?>
<!-- Generator: Adobe Illustrator 24.1.3, SVG Export Plug-In . SVG Version: 6.00 Build 0)  -->
<svg version="1.1" xmlns="http://www.w3.org/2000/svg" xmlns:xlink="http://www.w3.org/1999/xlink" x="0px" y="0px" width="32px"
	 height="32px" viewBox="0 0 32 32" style="enable-background:new 0 0 32 32;" xml:space="preserve">
<style type="text/css">
	.st0{fill:#E6D7C5;}
	.st1{fill:#DEC8BB;}
	.st2{fill:#FFFFFF;}
</style>
<g id="Laag_1">
</g>
<g id="PEZ_candy_form">
	<g>
		<path class="st0" d="M23.2,23.8H8.4c-3.9,0-7.1-3.2-7.1-7.1v-2.4c0-4,3.2-7.2,7.1-7.2h14.9c3.9,0,7.1,3.2,7.1,7.1v2.4
			C30.3,20.6,27.1,23.8,23.2,23.8z"/>
		<path class="st1" d="M23.4,21.3H8c-1.8,0-3.3-1.5-3.3-3.3v-5c0-1.8,1.5-3.3,3.3-3.3h15.4c1.8,0,3.3,1.5,3.3,3.3v5
			C26.6,19.9,25.2,21.3,23.4,21.3z"/>
		<path class="st2" d="M8.9,12.8c0.4-0.1,0.9-0.1,1.5-0.1c0.8,0,1.4,0.1,1.7,0.4s0.6,0.7,0.6,1.2s-0.1,0.9-0.5,1.2
			c-0.4,0.4-1.2,0.6-1.9,0.6c-0.2,0-0.4,0-0.7-0.1v2.2H8.9C8.9,18.2,8.9,12.8,8.9,12.8z M9.7,15.5c0.1,0.1,0.4,0.1,0.7,0.1
			c0.9,0,1.6-0.4,1.6-1.2s-0.6-1.1-1.5-1.1c-0.4,0-0.7,0-0.8,0.1C9.7,13.4,9.7,15.5,9.7,15.5z"/>
		<path class="st2" d="M17.1,15.7h-2.5v2h2.7v0.6h-3.6v-5.5h3.5v0.6h-2.6v1.7h2.5V15.7z"/>
		<path class="st2" d="M18,17.9l3.5-4.5l0,0h-3.2v-0.7h4.2v0.4l-3.5,4.4l0,0h3.5v0.6H18L18,17.9L18,17.9z"/>
	</g>
</g>
</svg>
